<svg xmlns="http://www.w3.org/2000/svg" xmlns:xlink="http://www.w3.org/1999/xlink" id="Layer_1" x="0" y="0" enable-background="new 0 0 954.9 624.4" version="1.1" viewBox="0 0 954.9 624.4" xml:space="preserve"><rect width="257.7" height="95.3" x="36.1" y="188.5" fill="#FFF" stroke="#000" stroke-miterlimit="10"/><rect width="257.7" height="95.3" x="36.1" y="188.5" fill="none"/><text transform="matrix(1.0297 0 0 1 73.5326 225.4261)"><tspan x="0" y="0" font-family="'HelveticaNeue'" font-size="16.084">`currentInterest` changes</tspan><tspan x="-18" y="19.3" font-family="'HelveticaNeue'" font-size="16.084">from “fashion” to “celebrities”</tspan></text><rect width="257.7" height="95.3" x="350" y="188.5" fill="#FFF" stroke="#000" stroke-miterlimit="10"/><rect width="257.7" height="95.3" x="350" y="188.5" fill="none"/><text font-family="'HelveticaNeue'" font-size="16.084" transform="matrix(1.0297 0 0 1 360.3138 244.7264)">subscription autorun invalidated</text><rect width="257.7" height="95.3" x="663.9" y="188.5" fill="#FFF" stroke="#000" stroke-miterlimit="10"/><rect width="257.7" height="95.3" x="663.9" y="188.5" fill="none"/><text transform="matrix(1.0297 0 0 1 725.3367 214.3973)"><tspan x="0" y="0" font-family="'HelveticaNeue'" font-size="16.084">onInvalidate() runs</tspan><tspan x="-52.8" y="19.3" font-family="'HelveticaNeue'" font-size="16.084">- “Cosmo” subscription stops; its</tspan><tspan x="-52.8" y="38.6" font-family="'HelveticaNeue'" font-size="16.084">`references` property is now 0</tspan></text><rect width="275.3" height="95.3" x="27.3" y="344.6" fill="#FFF" stroke="#000" stroke-miterlimit="10"/><rect width="273.9" height="95.3" x="28" y="344.6" fill="none"/><text transform="matrix(1.0297 0 0 1 63.0905 381.4888)"><tspan x="0" y="0" font-family="'HelveticaNeue'" font-size="16.084">subscription autorun reruns</tspan><tspan x="-27.3" y="19.3" font-family="'HelveticaNeue'" font-size="16.084">- new “People” subscription made, </tspan><tspan x="-27.3" y="38.6" font-family="'HelveticaNeue'" font-size="16.084">with `references` property of 1</tspan></text><rect width="274.4" height="95.3" x="30.5" y="500.5" fill="#FFF" stroke="#000" stroke-miterlimit="10"/><rect width="274.6" height="95.3" x="27.3" y="500.5" fill="none"/><text transform="matrix(1.0297 0 0 1 105.2577 537.4227)"><tspan x="0" y="0" font-family="'HelveticaNeue'" font-size="16.084">afterFlush() runs</tspan><tspan x="-63" y="19.3" font-family="'HelveticaNeue'" font-size="16.084">- “Cosmo” subscription removed,</tspan><tspan x="-67.2" y="38.6" font-family="'HelveticaNeue'" font-size="16.084">because it is unused (references 0)</tspan></text><path fill="none" d="M478.9,236.2"/><path fill="none" d="M164.9,236.2"/><line x1="174.6" x2="155.3" y1="236.2" y2="236.2" fill="none"/><path fill="none" d="M164.9,236.2"/><path fill="none" d="M164.9,236.2"/><path stroke="#000" stroke-miterlimit="10" d="M164.9,236.2"/><path stroke="#000" stroke-miterlimit="10" d="M164.9,236.2"/><line x1="164.9" x2="164.9" y1="344.5" y2="283.8" stroke="#000" stroke-miterlimit="10"/><line x1="164.9" x2="164.9" y1="236.2" y2="236.2" stroke="#000" stroke-miterlimit="10"/><line x1="350" x2="293.8" y1="236.2" y2="236.2" stroke="#000" stroke-miterlimit="10"/><line x1="164.9" x2="164.9" y1="500.5" y2="439.9" stroke="#000" stroke-miterlimit="10"/><line x1="663.9" x2="607.7" y1="236.2" y2="236.2" stroke="#000" stroke-miterlimit="10"/><rect width="257.7" height="95.3" x="36.1" y="32.6" fill="#FFF" stroke="#000" stroke-miterlimit="10"/><rect width="257.7" height="95.3" x="36.1" y="32.6" fill="none"/><text transform="matrix(1.0297 0 0 1 49.2875 58.4639)"><tspan x="0" y="0" font-family="'HelveticaNeue'" font-size="16.084">user is subscribed to “Cosmo”,</tspan><tspan x="23.4" y="19.3" font-family="'HelveticaNeue'" font-size="16.084">with a `currentInterest` of </tspan><tspan x="79.4" y="38.6" font-family="'HelveticaNeue'" font-size="16.084">“fashion”</tspan></text><line x1="164.9" x2="164.9" y1="188.5" y2="127.9" stroke="#000" stroke-miterlimit="10"/></svg>